<?xml version="1.0" standalone="no"?><!DOCTYPE svg PUBLIC "-//W3C//DTD SVG 1.1//EN" "http://www.w3.org/Graphics/SVG/1.1/DTD/svg11.dtd"><svg t="1739893776240" class="icon" viewBox="0 0 1024 1024" version="1.1" xmlns="http://www.w3.org/2000/svg" p-id="5138" xmlns:xlink="http://www.w3.org/1999/xlink" width="200" height="200"><path d="M807.904 0H1024v215.04c-48.416 40.096-99.2 77.44-150.816 113.504 1.056-14.304 2.976-42.656 3.84-56.736 57.184-50.976 74.016-124.384 73.376-198.176-74.016-0.64-147.424 16-198.176 73.6-14.08 0.864-42.464 2.784-56.544 3.616A2471.36 2471.36 0 0 1 807.904 0.032z" p-id="5139" fill="#d81e06"></path><path d="M650.016 153.824c23.04 5.76 45.856 11.744 68.704 17.92-46.72 58.24-87.904 162.336-180.256 135.04 34.144-53.344 73.824-102.4 111.584-152.96z" p-id="5140" fill="#d81e06"></path><path d="M72.736 310.816C172.8 300.8 255.552 352 322.56 420.48c-65.696 49.92-97.696 122.88-95.776 205.024 26.016-1.056 52.064-2.336 78.08-3.616 6.4-149.536 125.856-266.016 260.896-312.96-54.624 113.92-201.824 178.56-174.944 324.256 145.696 26.656 210.336-120.096 324.064-175.136-46.496 135.456-163.424 254.304-312.736 261.12-1.28 26.24-2.336 52.256-3.616 78.496 160.64-90.24 335.776-93.216 314.464 153.6-140.8-7.904-260.704-87.456-373.12-164.896-64.64 64.864-113.28 143.776-118.4 237.664H0.032v-219.936c93.44-7.456 172.576-55.264 237.664-119.904-77.44-112.416-157.024-232.32-164.896-373.344z" p-id="5141" fill="#d81e06"></path><path d="M717.024 485.536c-25.824-91.744 76.384-134.816 135.68-179.84 5.984 22.624 11.744 45.44 17.28 68.256-50.336 37.984-99.616 77.664-152.96 111.584z" p-id="5142" fill="#d81e06"></path></svg>